HIERARCHY
ROOT hip
{
	OFFSET 0.000000 0.000000 0.000000
	CHANNELS 6 Xposition Yposition Zposition Xrotation Zrotation Yrotation 
	JOINT abdomen
	{
		OFFSET 0.000000 3.422050 0.000000
		CHANNELS 3 Xrotation Zrotation Yrotation 
		JOINT chest
		{
			OFFSET 0.000000 8.486693 -0.684411
			CHANNELS 3 Xrotation Zrotation Yrotation 
			JOINT neck
			{
				OFFSET 0.000000 10.266162 -0.273764
				CHANNELS 3 Xrotation Zrotation Yrotation 
				JOINT head
				{
					OFFSET 0.000000 3.148285 0.000000
					CHANNELS 3 Xrotation Zrotation Yrotation 
					End Site
					{
						OFFSET 0.000000 3.148289 0.000000
					}
				}
			}
			JOINT lCollar
			{
				OFFSET 3.422053 6.707223 -0.821293
				CHANNELS 3 Yrotation Zrotation Xrotation 
				JOINT lShldr
				{
					OFFSET 3.285171 0.000000 0.000000
					CHANNELS 3 Zrotation Yrotation Xrotation 
					JOINT lForeArm
					{
						OFFSET 10.129278 0.000000 0.000000
						CHANNELS 3 Yrotation Zrotation Xrotation 
						JOINT lHand
						{
							OFFSET 8.486692 0.000000 0.000000
							CHANNELS 3 Zrotation Yrotation Xrotation 
							End Site
							{
								OFFSET 4.106464 0.000000 0.000000
							}
						}
					}
				}
			}
			JOINT rCollar
			{
				OFFSET -3.558935 6.707223 -0.821293
				CHANNELS 3 Yrotation Zrotation Xrotation 
				JOINT rShldr
				{
					OFFSET -3.148289 0.000000 0.000000
					CHANNELS 3 Zrotation Yrotation Xrotation 
					JOINT rForeArm
					{
						OFFSET -10.266159 0.000000 0.000000
						CHANNELS 3 Yrotation Zrotation Xrotation 
						JOINT rHand
						{
							OFFSET -8.349810 0.000000 0.000000
							CHANNELS 3 Zrotation Yrotation Xrotation 
							End Site
							{
								OFFSET -4.106464 0.000000 0.000000
							}
						}
					}
				}
			}
		}
	}
	JOINT lThigh
	{
		OFFSET 5.338403 -1.642589 1.368821
		CHANNELS 3 Xrotation Zrotation Yrotation 
		JOINT lShin
		{
			OFFSET -2.053232 -20.121670 0.000000
			CHANNELS 3 Xrotation Zrotation Yrotation 
			JOINT lFoot
			{
				OFFSET 0.000000 -19.300380 -1.231939
				CHANNELS 3 Xrotation Yrotation Zrotation 
				End Site
				{
					OFFSET 0.000000 -2.463878 4.653993
				}
			}
		}
	}
	JOINT rThigh
	{
		OFFSET -5.338403 -1.642589 1.368821
		CHANNELS 3 Xrotation Zrotation Yrotation 
		JOINT rShin
		{
			OFFSET 2.053232 -20.121670 0.000000
			CHANNELS 3 Xrotation Zrotation Yrotation 
			JOINT rFoot
			{
				OFFSET 0.000000 -19.300380 -1.231939
				CHANNELS 3 Xrotation Yrotation Zrotation 
				End Site
				{
					OFFSET 0.000000 -2.463878 4.653993
				}
			}
		}
	}
}
MOTION
Frames: 11
Frame Time: 0.049989
19.995884 41.404850 1.379515 -12.802594 0.000000 0.000000 8.177469 -0.258358 -0.105538 25.000572 -0.610394 -0.685013 -30.339277 0.000000 0.000000 -0.613743 0.000000 0.000000 -0.001347 -8.002656 -0.194655 -57.741531 -4.001737 -0.451969 -26.001497 0.000000 0.000000 -7.000325 0.000000 0.000000 -0.002182 7.999156 -0.194408 57.737442 3.998658 -0.453797 25.997908 0.000000 0.000000 6.996825 0.000000 0.000000 -4.740317 11.034495 10.983335 41.067867 1.463302 -0.581623 -17.597921 6.624269 -15.686709 -4.853029 -10.045449 -11.113003 41.345009 -1.656596 0.531856 -18.021509 -6.811956 14.851131 
19.995884 41.404850 1.356287 -11.889259 0.000000 0.000000 7.787479 -0.277265 -0.107095 24.486506 -0.610336 -0.684997 -29.674812 0.000000 0.000000 -0.613743 0.000000 0.000000 -0.001347 -8.002656 -0.194655 -57.741531 -4.001737 -0.451969 -26.001497 0.000000 0.000000 -7.000325 0.000000 0.000000 -0.002182 7.999156 -0.194408 57.737442 3.998658 -0.453797 25.997908 0.000000 0.000000 6.996825 0.000000 0.000000 -5.844959 11.036541 10.908208 41.067867 1.463302 -0.581623 -17.597921 6.624269 -15.686709 -5.956428 -10.044471 -11.045356 41.345009 -1.656596 0.531856 -18.021509 -6.811956 14.851131 
19.995884 41.404850 1.333058 -10.975286 0.000000 0.000000 7.397437 -0.296185 -0.108524 23.972315 -0.610278 -0.684981 -29.009401 0.000000 0.000000 -0.613743 0.000000 0.000000 -0.001347 -8.002656 -0.194655 -57.741539 -4.001738 -0.451969 -26.001497 0.000000 0.000000 -7.000325 0.000000 0.000000 -0.002182 7.999156 -0.194408 57.737442 3.998658 -0.453797 25.997908 0.000000 0.000000 6.996825 0.000000 0.000000 -6.950719 11.037166 10.832984 41.067867 1.463302 -0.581623 -17.597921 6.624269 -15.686709 -7.060927 -10.042205 -10.977671 41.345009 -1.656596 0.531856 -18.021509 -6.811956 14.851131 
19.995884 41.404850 1.309830 -10.060785 0.000000 0.000000 7.007357 -0.315116 -0.109824 23.458040 -0.610219 -0.684966 -28.343111 0.000000 0.000000 -0.613743 0.000000 0.000000 -0.001347 -8.002656 -0.194655 -57.741531 -4.001737 -0.451969 -26.001497 0.000000 0.000000 -7.000325 0.000000 0.000000 -0.002182 7.999156 -0.194408 57.737442 3.998658 -0.453797 25.997908 0.000000 0.000000 6.996825 0.000000 0.000000 -8.057386 11.036362 10.757693 41.067867 1.463302 -0.581623 -17.597921 6.624269 -15.686709 -8.166324 -10.038651 -10.909986 41.345009 -1.656596 0.531856 -18.021509 -6.811956 14.851131 
19.995884 41.404850 1.286601 -9.145877 0.000000 0.000000 6.617242 -0.334057 -0.110996 22.943689 -0.610160 -0.684951 -27.675972 0.000000 0.000000 -0.613743 0.000000 0.000000 -0.001347 -8.002656 -0.194655 -57.741539 -4.001738 -0.451969 -26.001497 0.000000 0.000000 -7.000325 0.000000 0.000000 -0.002182 7.999156 -0.194408 57.737442 3.998658 -0.453797 25.997908 0.000000 0.000000 6.996825 0.000000 0.000000 -9.164755 11.034129 10.682387 41.067867 1.463302 -0.581623 -17.597921 6.624269 -15.686709 -9.272411 -10.033808 -10.842343 41.345009 -1.656596 0.531856 -18.021509 -6.811956 14.851131 
19.995884 41.404850 1.263373 -8.230679 0.000000 0.000000 6.227105 -0.353006 -0.112038 22.429289 -0.610102 -0.684937 -27.008034 0.000000 0.000000 -0.613743 0.000000 0.000000 -0.001347 -8.002656 -0.194655 -57.741531 -4.001737 -0.451969 -26.001497 0.000000 0.000000 -7.000325 0.000000 0.000000 -0.002182 7.999156 -0.194408 57.737442 3.998658 -0.453797 25.997908 0.000000 0.000000 6.996825 0.000000 0.000000 -10.272614 11.030466 10.607106 41.067867 1.463302 -0.581623 -17.597921 6.624269 -15.686709 -10.378979 -10.027678 -10.774779 41.345009 -1.656596 0.531856 -18.021509 -6.811956 14.851131 
19.995884 41.404850 1.240144 -7.315304 0.000000 0.000000 5.836954 -0.371963 -0.112952 21.914858 -0.610043 -0.684924 -26.339338 0.000000 0.000000 -0.613743 0.000000 0.000000 -0.001347 -8.002656 -0.194655 -57.741539 -4.001738 -0.451969 -26.001497 0.000000 0.000000 -7.000325 0.000000 0.000000 -0.002182 7.999156 -0.194408 57.737442 3.998658 -0.453797 25.997908 0.000000 0.000000 6.996825 0.000000 0.000000 -11.380758 11.025376 10.531893 41.067867 1.463302 -0.581623 -17.597921 6.624269 -15.686709 -11.485822 -10.020263 -10.707330 41.345009 -1.656596 0.531856 -18.021509 -6.811956 14.851131 
19.995884 41.404854 1.216915 -6.399869 0.000000 0.000000 5.446798 -0.390926 -0.113736 21.400419 -0.609984 -0.684911 -25.669926 0.000000 0.000000 -0.613743 0.000000 0.000000 -0.001347 -8.002656 -0.194655 -57.741531 -4.001737 -0.451969 -26.001497 0.000000 0.000000 -7.000325 0.000000 0.000000 -0.002182 7.999156 -0.194408 57.737442 3.998658 -0.453797 25.997908 0.000000 0.000000 6.996825 0.000000 0.000000 -12.488971 11.018853 10.456787 41.067867 1.463302 -0.581623 -17.597921 6.624269 -15.686709 -12.592729 -10.011566 -10.640034 41.345009 -1.656596 0.531856 -18.021509 -6.811956 14.851131 
19.995884 41.404854 1.193687 -5.484495 0.000000 0.000000 5.056646 -0.409893 -0.114392 20.885984 -0.609925 -0.684898 -24.999849 0.000000 0.000000 -0.613743 0.000000 0.000000 -0.001347 -8.002656 -0.194655 -57.741531 -4.001737 -0.451969 -26.001497 0.000000 0.000000 -7.000325 0.000000 0.000000 -0.002182 7.999156 -0.194408 57.737442 3.998658 -0.453797 25.997908 0.000000 0.000000 6.996825 0.000000 0.000000 -13.597047 11.010911 10.381832 41.067867 1.463302 -0.581623 -17.597921 6.624269 -15.686709 -13.699490 -10.001589 -10.572929 41.345009 -1.656596 0.531856 -18.021509 -6.811956 14.851131 
19.995884 41.404854 1.170458 -4.569296 0.000000 0.000000 4.666508 -0.428864 -0.114918 20.371586 -0.609865 -0.684887 -24.329149 0.000000 0.000000 -0.613743 0.000000 0.000000 -0.001347 -8.002656 -0.194655 -57.741531 -4.001737 -0.451969 -26.001497 0.000000 0.000000 -7.000325 0.000000 0.000000 -0.002182 7.999156 -0.194408 57.737442 3.998658 -0.453797 25.997908 0.000000 0.000000 6.996825 0.000000 0.000000 -14.704774 11.001552 10.307074 41.067867 1.463302 -0.581623 -17.597921 6.624269 -15.686709 -14.805895 -9.990340 -10.506054 41.345009 -1.656596 0.531856 -18.021509 -6.811956 14.851131 
19.995884 41.404854 1.147230 -3.654388 0.000000 0.000000 4.276391 -0.447837 -0.115315 19.857243 -0.609806 -0.684875 -23.657869 0.000000 0.000000 -0.613743 0.000000 0.000000 -0.001347 -8.002656 -0.194655 -57.741531 -4.001737 -0.451969 -26.001497 0.000000 0.000000 -7.000325 0.000000 0.000000 -0.002182 7.999156 -0.194408 57.737442 3.998658 -0.453797 25.997908 0.000000 0.000000 6.996825 0.000000 0.000000 -15.811943 10.990776 10.232546 41.067867 1.463302 -0.581623 -17.597921 6.624269 -15.686709 -15.911738 -9.977826 -10.439442 41.345009 -1.656596 0.531856 -18.021509 -6.811956 14.851131 
